<svg id="Layer_1" enable-background="new 0 0 256 256" height="512" viewBox="0 0 256 256" width="512" xmlns="http://www.w3.org/2000/svg"><g><g><path d="m245.15 156.3c4.33-17.9 4.6-37.61 0-56.6h-18.09c-2.18-7.64-5.22-14.91-9.01-21.72l12.81-12.8c-9.97-16.3-23.74-30.07-40.04-40.04l-12.8 12.81c-6.81-3.79-14.08-6.83-21.72-9.01v-18.09c-17.98-4.35-37.69-4.58-56.6 0v18.09c-7.64 2.18-14.91 5.22-21.72 9.01l-12.8-12.81c-16.3 9.97-30.07 23.74-40.04 40.04l12.81 12.8c-3.79 6.81-6.83 14.08-9.01 21.72h-18.09c-4.37 18.05-4.56 37.76 0 56.6h18.09c2.18 7.64 5.22 14.91 9.01 21.72l-12.81 12.8c9.97 16.3 23.74 30.07 40.04 40.04l12.8-12.81c6.81 3.79 14.08 6.83 21.72 9.01v18.09c17.913 4.343 37.673 4.585 56.6 0v-18.09c7.64-2.18 14.91-5.22 21.72-9.01l12.8 12.81c16.3-9.97 30.07-23.74 40.04-40.04l-12.81-12.8c3.79-6.81 6.83-14.08 9.01-21.72zm-117.15 50.24c-43.704-.043-78.51-35.434-78.51-78.55 0-43.37 35.13-78.5 78.5-78.5 43.38 0 78.55 35.13 78.55 78.5 0 43.647-35.487 78.593-78.54 78.55z" fill="#fc5d3d"/></g><g><g><path d="m72.644 205.451c-1.122-.805-1.38-2.366-.576-3.488.805-1.123 2.365-1.381 3.488-.576 15.614 11.188 34.02 16.812 52.444 16.823 49.387.027 90.21-39.926 90.21-90.17 0-24.097-9.39-46.757-26.438-63.807-.977-.977-.977-2.559 0-3.535s2.559-.977 3.535 0c17.994 17.993 27.903 41.909 27.903 67.342 0 53.019-43.07 95.19-95.195 95.171-19.444-.008-38.876-5.94-55.371-17.76zm-8.008-6.418c-1.339-1.197-2.665-2.45-3.939-3.726-.977-.977-.977-2.559 0-3.535s2.559-.977 3.535 0c1.209 1.209 2.466 2.397 3.736 3.532 1.029.92 1.118 2.501.198 3.53-.919 1.029-2.498 1.12-3.53.199z" fill="#ffcbc2"/></g></g><g><g><path d="m99.109 247.58c-1.13-.271-1.909-1.271-1.909-2.431v-16.22c-6.46-1.97-12.78-4.59-18.771-7.79l-11.479 11.491c-.801.8-2.11.95-3.08.36-16.58-10.141-30.721-24.28-40.86-40.87-.61-.99-.46-2.25.36-3.07l11.489-11.48c-3.199-5.989-5.819-12.3-7.79-18.77h-16.219c-1.16 0-2.16-.79-2.43-1.91-4.569-18.855-4.552-38.993 0-57.78.27-1.119 1.27-1.909 2.43-1.909h16.22c1.971-6.471 4.591-12.78 7.79-18.771l-11.49-11.48c-.82-.82-.971-2.091-.36-3.07 3.16-5.17 6.73-10.15 10.62-14.78 0-.01 0-.02.01-.02.851-1.021 2.5-1.17 3.521-.311 1.06.88 1.189 2.46.31 3.521-3.32 3.97-6.4 8.18-9.16 12.529l11.4 11.391c.79.78.96 2.01.42 2.979-3.73 6.721-6.69 13.851-8.79 21.2-.3 1.061-1.29 1.811-2.4 1.811h-16.111c-3.764 16.778-3.783 34.717 0 51.6h16.109c1.11 0 2.101.75 2.4 1.81 2.1 7.351 5.06 14.48 8.79 21.19.54.97.37 2.2-.42 2.99l-11.4 11.39c9.271 14.61 21.891 27.23 36.51 36.51l11.391-11.41c.77-.771 2.03-.95 2.979-.41 6.721 3.729 13.851 6.689 21.2 8.79 1.061.3 1.811 1.29 1.811 2.399v16.11c16.75 3.75 34.81 3.76 51.6 0v-16.11c0-1.109.75-2.1 1.81-2.399 7.351-2.101 14.48-5.061 21.19-8.79.96-.54 2.21-.36 2.99.41l11.39 11.409c14.61-9.279 27.23-21.899 36.51-36.51l-11.409-11.39c-.78-.79-.961-2.021-.421-2.99 3.74-6.71 6.7-13.84 8.801-21.19.3-1.06 1.29-1.81 2.399-1.81h16.101c1.88-8.4 2.84-17.09 2.84-25.83 0-8.71-.96-17.38-2.84-25.77h-16.101c-1.109 0-2.1-.75-2.399-1.811-2.101-7.35-5.061-14.479-8.801-21.2-.54-.97-.369-2.189.421-2.979l11.409-11.391c-9.28-14.608-21.9-27.238-36.51-36.508l-11.39 11.41c-.771.771-2.03.95-2.99.41-6.71-3.73-13.84-6.69-21.19-8.78-1.069-.31-1.81-1.3-1.81-2.41v-16.1c-16.81-3.771-34.83-3.771-51.6-.01v16.109c0 1.11-.75 2.101-1.811 2.41-7.359 2.09-14.49 5.05-21.2 8.78-.949.54-2.21.36-2.979-.41l-11.391-11.409c-4.739 3.01-9.31 6.391-13.59 10.061-1.01.87-2.67.739-3.529-.271-.932-1.082-.733-2.675.27-3.52 4.98-4.271 10.33-8.16 15.9-11.57.97-.59 2.279-.44 3.08.36l11.48 11.489c5.99-3.199 12.3-5.819 18.771-7.79v-16.219c0-1.16.779-2.16 1.909-2.43 18.7-4.54 38.99-4.54 57.78 0 1.12.27 1.91 1.27 1.91 2.43v16.22c6.48 1.98 12.79 4.601 18.77 7.79l11.48-11.489c.8-.801 2.11-.95 3.07-.36 16.59 10.14 30.729 24.28 40.87 40.87.609.979.46 2.25-.36 3.07l-11.49 11.479c3.2 5.99 5.82 12.311 7.79 18.771h16.22c1.16 0 2.16.79 2.431 1.909 2.27 9.37 3.42 19.08 3.42 28.86 0 9.811-1.15 19.53-3.42 28.92-.271 1.12-1.271 1.91-2.431 1.91h-16.22c-1.97 6.46-4.59 12.78-7.79 18.78l11.49 11.47c.82.82.97 2.08.36 3.07-10.15 16.59-24.28 30.729-40.87 40.87-.96.59-2.271.439-3.07-.36l-11.48-11.49c-5.989 3.2-12.31 5.82-18.77 7.79v16.22c0 1.16-.79 2.16-1.91 2.431-19.117 4.625-39.221 4.495-57.781-.001zm28.891-38.54c-44.989-.04-81.01-36.443-81.01-81.05 0-44.726 36.204-81 81-81 44.634 0 80.926 36.039 81.05 80.819 0 1.377-1.103 2.5-2.5 2.5-1.38 0-2.5-1.109-2.5-2.49-.09-41.81-34.21-75.829-76.05-75.829-41.934 0-76 33.884-76 76 0 41.84 34.06 75.96 75.92 76.05 35.479 0 65.254-23.98 73.739-57.061.341-1.31 1.721-2.13 3.051-1.8 1.33.34 2.14 1.71 1.8 3.05-9.061 35.142-40.897 60.811-78.5 60.811zm77.939-68.75c-1.482 0-2.673-1.294-2.489-2.811.17-1.35 1.43-2.35 2.79-2.17 1.369.17 2.35 1.42 2.18 2.79 0 0 0 .01-.01.01-.16 1.241-1.221 2.181-2.471 2.181zm-165.409-95.221c-.973-.952-1.011-2.538-.03-3.539h.01c.94-.95 2.58-.95 3.53-.011.96.94 1.01 2.519.029 3.521l-.01.01c-.947.969-2.551 1-3.529.019z"/></g></g><g><g><g><path d="m135.952 88.43 11.471 16.085 19.207 6.182c6.438 2.072 8.873 9.903 4.744 15.26l-11.947 15.504.365 20.253c.123 6.848-6.656 11.693-13.095 9.359l-18.697-6.778-18.698 6.778c-6.439 2.334-13.218-2.511-13.095-9.359l.365-20.253-11.947-15.504c-4.128-5.357-1.694-13.188 4.744-15.26l19.207-6.182 11.471-16.085c3.895-5.462 12.01-5.462 15.905 0z" fill="#f0c020"/></g><g><path d="m104.887 160.974c-.471-1.298.2-2.732 1.498-3.203l1.799-.652c1.296-.469 2.731.2 3.203 1.498.471 1.298-.2 2.732-1.498 3.203l-1.799.652c-1.31.473-2.735-.209-3.203-1.498zm43.024 1.498-19.911-7.218-8.711 3.157c-1.296.469-2.73-.199-3.202-1.499-.471-1.298.2-2.731 1.499-3.202l9.563-3.466c.549-.199 1.154-.199 1.703 0l17.346 6.288-.337-18.686c-.01-.567.174-1.121.52-1.571l11.063-14.354-17.624-5.672c-.513-.165-.958-.49-1.27-.929l-12.584-17.646c-.802-1.124-.54-2.685.584-3.486 1.122-.805 2.685-.541 3.486.584l12.104 16.972 20.22 6.508c1.647.529 2.271 2.537 1.215 3.906l-12.697 16.476.387 21.442c.029 1.753-1.712 2.993-3.354 2.396z" fill="#f9e5af"/></g></g><g><g><path d="m93.71 161.64.35-19.35-11.42-14.811c-3.234-4.195-3.355-9.884-.57-14.17.721-1.12 2.33-1.47 3.45-.74 1.158.744 1.497 2.279.75 3.461-1.586 2.442-1.666 5.805.33 8.399l11.95 15.51c.35.44.53 1 .52 1.57 0 .016-.369 20.364-.369 20.38.012 5.059 5.059 8.565 9.75 6.83l18.699-6.77c.551-.21 1.15-.21 1.7 0l18.7 6.77c4.643 1.684 9.74-1.634 9.74-6.96l-.36-20.25c-.01-.57.17-1.13.521-1.57l11.939-15.51c3.116-4.028 1.199-9.842-3.53-11.35l-19.199-6.181c-.511-.17-.96-.5-1.271-.93l-11.47-16.09c-2.908-4.067-8.935-4.062-11.84 0l-11.471 16.09c-.31.43-.76.76-1.27.93l-6.52 2.102c-1.3.41-2.739-.33-3.149-1.62-.415-1.305.286-2.71 1.61-3.15l5.739-1.84 10.99-15.41c4.866-6.841 15.057-6.891 19.98 0l10.989 15.41 18.42 5.93c8.177 2.63 11.086 12.514 5.96 19.16l-11.42 14.811c.006.357.351 19.253.351 19.609 0 8.458-8.398 14.419-16.44 11.521l-17.849-6.471-17.851 6.47c-8.906 3.212-17.086-4.468-16.439-11.78zm-3.561-51.201c-.42-1.31.301-2.72 1.62-3.14 1.29-.42 2.73.33 3.141 1.61.42 1.319-.301 2.729-1.61 3.149-1.312.422-2.713-.284-3.151-1.619z"/></g></g></g></g></svg>